<svg width="40" height="40" xmlns="http://www.w3.org/2000/svg">

 <g>
  <title>background</title>
  <rect fill="none" id="canvas_background" height="402" width="582" y="-1" x="-1"/>
 </g>
 <g>
  <title>Layer 1</title>
  <g stroke="null" id="svg_1">
   <polygon stroke="null" id="svg_2" fill="#ffffff" points="18,21.60613250732422 6.571292877197266,32.67768859863281 2.3327064514160156,28.57155990600586 13.76141357421875,17.5 2.3327064514160156,6.428440093994141 6.571292877197266,2.322307586669922 18,13.393867492675781 29.428707122802734,2.322307586669922 33.667293548583984,6.428440093994141 22.23858642578125,17.5 33.667293548583984,28.57155990600586 29.428707122802734,32.67768859863281 "/>
   <path stroke="null" id="svg_3" fill="#ffffff" d="m6.571294,2.644618l11.095529,10.748794l0.333176,0.322765l0.332706,-0.322309l11.096,-10.74925l3.905882,3.783823l-11.096,10.74925l-0.332706,0.322309l0.332706,0.322309l11.095529,10.74925l-3.905882,3.783823l-11.095529,-10.74925l-0.332706,-0.322309l-0.332706,0.322309l-11.096,10.74925l-3.905882,-3.783823l11.096,-10.74925l0.332706,-0.322309l-0.332706,-0.322309l-11.096,-10.74925l3.905882,-3.783823m22.857412,-0.644618l-11.428706,11.071559l-11.428706,-11.071559l-4.571294,4.428441l11.428706,11.071559l-11.428706,11.071559l4.571294,4.428441l11.428706,-11.071559l11.428706,11.071559l4.571294,-4.428441l-11.428706,-11.071559l11.428706,-11.071559l-4.571294,-4.428441l0,0z"/>
  </g>
 </g>
</svg>