<?xml version="1.0" standalone="no"?>
<!DOCTYPE svg PUBLIC "-//W3C//DTD SVG 20010904//EN"
 "http://www.w3.org/TR/2001/REC-SVG-20010904/DTD/svg10.dtd">
<svg version="1.0" xmlns="http://www.w3.org/2000/svg"
 width="215.000000pt" height="215.000000pt" viewBox="0 0 215.000000 215.000000"
 preserveAspectRatio="xMidYMid meet">
<metadata>
Created by potrace 1.11, written by Peter Selinger 2001-2013
</metadata>
<g transform="translate(0.000000,215.000000) scale(0.100000,-0.100000)"
fill="#000000" stroke="none">
<path d="M1035 2048 c-54 -19 -186 -91 -225 -123 -8 -7 -26 -16 -40 -20 -35
-10 -86 -60 -131 -128 -21 -32 -63 -81 -95 -110 -90 -82 -171 -214 -198 -320
-16 -66 -19 -242 -5 -308 14 -64 57 -173 83 -212 14 -20 25 -55 29 -89 6 -60
31 -117 73 -168 15 -17 60 -89 100 -158 89 -155 119 -193 179 -221 41 -19 148
-46 264 -66 19 -3 37 -8 40 -10 4 -2 25 -6 47 -9 23 -4 56 -11 75 -16 19 -6
48 -10 64 -10 70 0 187 109 245 228 44 92 44 93 85 217 20 60 45 119 55 130
26 28 56 151 41 168 -8 10 -8 30 -2 68 6 30 12 72 15 94 5 40 14 101 21 140 2
11 4 27 4 35 1 9 15 21 31 27 29 11 30 13 30 77 0 53 -4 70 -20 86 -24 24 -27
82 -5 100 10 8 15 31 15 70 0 69 -7 90 -28 90 -8 0 -13 3 -9 6 3 3 -3 29 -15
58 -11 28 -22 62 -24 76 -24 146 -54 203 -134 252 -35 21 -70 28 -240 43 -30
3 -77 7 -105 10 -136 14 -161 13 -220 -7z m-221 -237 c3 -5 -3 -11 -14 -14
-20 -5 -26 3 -13 16 9 10 21 9 27 -2z m373 -45 c1 -1 -2 -7 -6 -15 -7 -10 -16
-9 -47 8 l-39 21 45 -7 c25 -3 46 -6 47 -7z m-537 -1126 c29 -16 31 -19 13
-20 -26 0 -73 20 -73 32 0 13 22 9 60 -12z m67 -26 c-3 -3 -12 -4 -19 -1 -8 3
-5 6 6 6 11 1 17 -2 13 -5z m313 -39 c0 -12 -9 -13 -42 -9 -24 4 -51 6 -62 6
-36 -2 -5 12 42 18 53 7 62 5 62 -15z"/>
</g>
</svg>
